# xmcd
#
# Track frame offsets:
#	150
#	17678
#	35300
#	56295
#	86367
#	107179
#	127164
#	140139
#	161415
#	182354
#	216257
#
# Disc length: 3176 seconds
# Revision: 0
# Processed by: cddbd v1.5.2PL0 Copyright (c) Steve Scherf et al.
# Submitted via: dBpowerAMP V12.0
#
DISCID=900c660b
DTITLE=Elkie Brooks - Life With Friends CD1
DYEAR=2006
DGENRE=Vocal
TTITLE0=Electric Lady
TTITLE1=Gasoline Alley
TTITLE2=Set Me Free
TTITLE3=Superstar - The Rose
TTITLE4=Runaway
TTITLE5=Fool If You Think It's Over
TTITLE6=Don't Cry Out Loud
TTITLE7=Lilac Wine
TTITLE8=Nights In White Satin
TTITLE9=He Moves Me
TTITLE10=The Groom's Still Waiting At The Altar
EXTD=
EXTT0=
EXTT1=
EXTT2=
EXTT3=
EXTT4=
EXTT5=
EXTT6=
EXTT7=
EXTT8=
EXTT9=
EXTT10=
PLAYORDER=
